<svg width="32" height="32" viewBox="0 0 32 32" fill="none" xmlns="http://www.w3.org/2000/svg">
<path d="M21.348 4.666C21.5224 4.8446 21.6201 5.08435 21.6201 5.334C21.6201 5.58366 21.5224 5.82341 21.348 6.002L11.602 16L21.348 25.996C21.5224 26.1746 21.6201 26.4143 21.6201 26.664C21.6201 26.9136 21.5224 27.1534 21.348 27.332C21.2632 27.4191 21.1618 27.4883 21.0498 27.5356C20.9379 27.5828 20.8175 27.6072 20.696 27.6072C20.5744 27.6072 20.4541 27.5828 20.3421 27.5356C20.2302 27.4883 20.1288 27.4191 20.044 27.332L9.68 16.698C9.49797 16.5112 9.39609 16.2608 9.39609 16C9.39609 15.7392 9.49797 15.4887 9.68 15.302L20.044 4.668C20.1288 4.58092 20.2302 4.5117 20.3421 4.46444C20.4541 4.41717 20.5744 4.39282 20.696 4.39282C20.8175 4.39282 20.9379 4.41717 21.0498 4.46444C21.1618 4.5117 21.2632 4.58092 21.348 4.668V4.666Z" fill="black"/>
</svg>
